PathFileType	4	(X/Y/Z)	D:\Share\Shared_Data\Ergonomics\Sit To Stand Pertubation\S2\Unperturbed.trc
DataRate	CameraRate	NumFrames	NumMarkers	Units	OrigDataRate	OrigDataStartFrame	OrigNumFrames	
100	100	14	18	m	100	3970	291
Frame#	Time	R_Toe			R_ASIS			R_Pelvis			V_Sacral			L_Pelvis			L_ASIS			Clavical			R_Acromium			L_Acromium			Sternum			Torso			R_Thigh_Med			R_Thigh_Lat			R_Thigh			R_Shank_Med			R_Shank_Lat			R_Shank			R_Heel			
		X1	Y1	Z1	X2	Y2	Z2	X3	Y3	Z3	X4	Y4	Z4	X5	Y5	Z5	X6	Y6	Z6	X7	Y7	Z7	X8	Y8	Z8	X9	Y9	Z9	X10	Y10	Z10	X11	Y11	Z11	X12	Y12	Z12	X13	Y13	Z13	X14	Y14	Z14	X15	Y15	Z15	X16	Y16	Z16	X17	Y17	Z17	X18	Y18	Z18	

3970	39.69	0.44061499	0.071490257	0.14875764	0.134062	0.7168186	0.13993817	0.070873116	0.75811127	0.18218604	-0.082851997	0.76092645	0.030021248	0.031333767	0.77118652	-0.15040233	0.11987352	0.7300072	-0.12751448	0.43294559	0.94044244	-0.0064748249	0.39559329	1.038411	0.19200108	0.38516049	1.0301425	-0.19421707	0.34947714	0.80229327	0.0018961972	0.41105472	0.90641296	-0.1128701	0.4464834	0.47930057	0.11680624	0.42287256	0.49493744	0.22025873	0.30544751	0.65372009	0.17290744	0.30589331	0.10980469	0.11519817	0.28517197	0.097216454	0.20832475	0.38363623	0.34669037	0.23580978	0.20240694	0.057685417	0.15311464
3971	39.7	0.44076825	0.070928314	0.14865799	0.13713597	0.72135999	0.13983891	0.074211685	0.76328693	0.18235739	-0.079401192	0.76720471	0.029966801	0.03479417	0.77657758	-0.15042039	0.12310526	0.73450745	-0.12721398	0.43576675	0.94676007	-0.0064795938	0.3984317	1.0443766	0.19214798	0.38747809	1.0362899	-0.19413393	0.35240369	0.80849786	0.0020041828	0.41377899	0.91259796	-0.11281082	0.44728479	0.47905127	0.11719715	0.42370224	0.4947453	0.22050954	0.30860022	0.65522546	0.17337753	0.30594324	0.10981877	0.1152288	0.28519888	0.097213219	0.20835014	0.38397629	0.34655896	0.23601691	0.20241902	0.057722183	0.15312357
3972	39.71	0.44088379	0.070505821	0.1486188	0.14024496	0.72590387	0.13977251	0.0775289	0.76847382	0.18252538	-0.075965401	0.7734682	0.029897356	0.038246693	0.78196997	-0.15044717	0.12633233	0.73910388	-0.12689242	0.43845306	0.95321973	-0.0064742064	0.4011369	1.0504855	0.1923006	0.38969537	1.042536	-0.19404645	0.35529391	0.8148208	0.0021119044	0.41640878	0.91891205	-0.11278423	0.44802267	0.47881931	0.11757568	0.424474	0.4945676	0.22074704	0.31162961	0.65668549	0.17385199	0.30599258	0.10982972	0.11525012	0.28522052	0.097213066	0.20836403	0.38427316	0.34644281	0.23620862	0.20243077	0.0577598	0.15313043
3973	39.72	0.44096188	0.070202927	0.14863072	0.1433893	0.73046613	0.13975525	0.080824684	0.77366205	0.18269356	-0.072549454	0.77969672	0.02982284	0.041679821	0.78734955	-0.1504758	0.12954735	0.74381903	-0.12659206	0.44101276	0.95980634	-0.0064611506	0.40371542	1.05672	0.19245694	0.39181177	1.0488716	-0.19395171	0.35815195	0.8212464	0.0022118535	0.41895142	0.92534552	-0.11279473	0.44870081	0.47860144	0.11792823	0.42519705	0.49440613	0.2209614	0.31454761	0.65809381	0.17432346	0.30604312	0.10983769	0.11526369	0.2852403	0.097215584	0.20836874	0.38453586	0.34634741	0.23638089	0.20244328	0.057798019	0.15313582
3974	39.73	0.44101019	0.069982651	0.14867824	0.14656075	0.73507678	0.13979997	0.084099609	0.77884235	0.18286508	-0.069157455	0.78587012	0.029756788	0.045079739	0.79270392	-0.15049799	0.13274252	0.74866705	-0.12634621	0.44346112	0.96650568	-0.0064423761	0.40617279	1.0630637	0.19261639	0.39382849	1.0552904	-0.19384755	0.36098019	0.82775989	0.0022993705	0.42141647	0.93188861	-0.11284064	0.44932523	0.47839673	0.11824435	0.42587915	0.49426239	0.22114258	0.31738998	0.65945807	0.17478737	0.30609766	0.10984258	0.11527017	0.28526196	0.097220589	0.20836581	0.38477509	0.34627612	0.23653258	0.20245822	0.057836304	0.15313943
3975	39.74	0.44103922	0.069805557	0.14874501	0.14974612	0.73977136	0.13991116	0.087355392	0.7840061	0.18304326	-0.065791779	0.79197174	0.029712044	0.04843206	0.79802191	-0.15050862	0.13591174	0.75365283	-0.12617141	0.44581711	0.97330469	-0.0064192572	0.40851263	1.0695016	0.19277942	0.39575015	1.0617936	-0.19373351	0.36378091	0.8343479	0.0023723693	0.42381317	0.93853162	-0.1129155	0.44990237	0.47820538	0.11851584	0.42652643	0.49413705	0.22128001	0.32019464	0.66078845	0.17523819	0.30615933	0.10984407	0.11526958	0.28528894	0.097227959	0.20835574	0.38500125	0.3462305	0.23666212	0.20247701	0.057874176	0.15314056
3976	39.75	0.44106033	0.06963813	0.14881613	0.15293317	0.74457526	0.14008582	0.090594635	0.789146	0.1832308	-0.062452755	0.79798969	0.029698122	0.051724777	0.80329297	-0.15050876	0.13905196	0.75877466	-0.12606618	0.44809964	0.98019214	-0.0063924398	0.41073715	1.0760195	0.19294655	0.39758609	1.0683876	-0.19361159	0.36655746	0.84099878	0.0024312479	0.42614917	0.94526544	-0.11301018	0.45043594	0.47802719	0.11873547	0.4271438	0.49403027	0.2213636	0.32298578	0.66209039	0.17566803	0.30623053	0.10984186	0.11526141	0.28532385	0.097237411	0.20833842	0.38522202	0.34621091	0.23676552	0.20250072	0.057911537	0.15313889
3977	39.76	0.44108447	0.069456856	0.14887871	0.15611478	0.74948932	0.14031577	0.093820625	0.7942558	0.18342929	-0.059138428	0.80391724	0.029721439	0.054950886	0.80850934	-0.1505025	0.14216466	0.76402313	-0.1260101	0.4503248	0.98715814	-0.0063617716	0.41284735	1.0826039	0.19311763	0.39934741	1.0750781	-0.19348605	0.36931445	0.84770203	0.0024785452	0.42843036	0.95208087	-0.11311491	0.45092688	0.47786166	0.11889651	0.42773553	0.49394162	0.22138496	0.3257749	0.66336438	0.17606851	0.30631216	0.10983559	0.1152449	0.28536804	0.097248474	0.20831348	0.38544144	0.34621637	0.23683742	0.20252954	0.057948467	0.15313461
3978	39.77	0.44112054	0.069249634	0.1489225	0.15929083	0.75448096	0.14058633	0.097036934	0.79933063	0.18363921	-0.055844654	0.8097514	0.029785593	0.058109627	0.81366608	-0.15049123	0.14525693	0.769375	-0.12596107	0.45250385	0.99419379	-0.0063264122	0.41484369	1.0892416	0.19329213	0.40104333	1.0818612	-0.19336063	0.37205637	0.85444818	0.002518254	0.43066193	0.9589682	-0.1132207	0.45137604	0.4777081	0.11899355	0.42830515	0.49387042	0.22133795	0.3285639	0.66460785	0.1764323	0.30640326	0.10982491	0.11521933	0.2854213	0.097260826	0.20828067	0.38565964	0.346245	0.23687267	0.20256287	0.057984898	0.15312808
3979	39.78	0.44117319	0.069015579	0.14894125	0.16246629	0.75949731	0.14087779	0.10024676	0.804367	0.18386067	-0.0525667	0.81549268	0.029889658	0.061206875	0.81876129	-0.15047252	0.14834151	0.77478326	-0.12585194	0.45464249	1.0012902	-0.006285183	0.41672711	1.0959203	0.19347015	0.40267902	1.0887269	-0.19323672	0.37478616	0.86122845	0.0025547891	0.43284906	0.9659173	-0.11331963	0.451784	0.4775654	0.11902365	0.42885544	0.49381522	0.22121866	0.33134711	0.66581689	0.17675374	0.30650046	0.1098095	0.11518436	0.28548175	0.0972743	0.20824002	0.38587354	0.34629425	0.23686734	0.20259924	0.058020588	0.15311948
3980	39.79	0.44124173	0.068762009	0.14893362	0.16564673	0.76449207	0.1411729	0.10345244	0.80936176	0.18409384	-0.049301743	0.82114575	0.030026968	0.064254601	0.82379431	-0.15044434	0.15143414	0.78017529	-0.12560763	0.45674078	1.008438	-0.006237247	0.41849976	1.1026287	0.19365312	0.40425742	1.0956635	-0.19311409	0.37750381	0.86803418	0.002591635	0.43499713	0.97291699	-0.11340539	0.45214996	0.47743231	0.11898656	0.4293873	0.4937735	0.22102533	0.33411502	0.66698816	0.17702965	0.30659943	0.10978895	0.11514014	0.28554651	0.097288834	0.20819193	0.38607822	0.34636194	0.23681967	0.20263655	0.058055504	0.15310892
3981	39.8	0.44132092	0.068498718	0.14890314	0.16883543	0.76944006	0.1414619	0.10665566	0.81431238	0.1843385	-0.046049873	0.82671692	0.030188431	0.06726783	0.8287652	-0.15040799	0.15454454	0.78548163	-0.12519811	0.45879483	1.0156269	-0.0061827583	0.42016541	1.1093563	0.19384265	0.40578012	1.1026594	-0.19299261	0.38020544	0.87485681	0.0026303561	0.43711148	0.97995715	-0.11347383	0.45247321	0.47730743	0.11888355	0.42989911	0.49374292	0.22075911	0.33685706	0.6681203	0.17725899	0.30669586	0.10976253	0.11508699	0.28561252	0.09730452	0.20813672	0.38626917	0.34644675	0.23673019	0.20267296	0.058089989	0.15309676
3982	39.81	0.44140396	0.068231552	0.14885657	0.17203253	0.77433612	0.14174142	0.10985738	0.81921722	0.18459404	-0.042812862	0.83221069	0.030368299	0.070259636	0.83367523	-0.15036662	0.15766934	0.79067072	-0.12466764	0.46079776	1.0228467	-0.0061230102	0.42172989	1.1160936	0.19403983	0.40724783	1.1097029	-0.19287325	0.38288562	0.88168958	0.0026705236	0.43919589	0.9870285	-0.11352321	0.45275531	0.47719058	0.11871655	0.43038837	0.4937226	0.22042436	0.33956531	0.66921594	0.17744199	0.30678748	0.10972899	0.11502473	0.28567807	0.097321823	0.20807428	0.38644345	0.3465488	0.23660127	0.20270737	0.058124676	0.15308325
3983	39.82	0.44148492	0.067959572	0.14880156	0.17523618	0.77918628	0.14201117	0.11305758	0.8240755	0.18485947	-0.039591888	0.83762848	0.030567257	0.07323774	0.83852771	-0.15032083	0.16079515	0.79574774	-0.1240921	0.46274203	1.0300878	-0.0060601177	0.42320041	1.1228326	0.19424518	0.40865976	1.1167797	-0.19275681	0.38553903	0.8885274	0.002709985	0.4412515	0.99412439	-0.11355432	0.45299918	0.47708319	0.11848893	0.43085236	0.49371371	0.22002873	0.34223831	0.67028009	0.17758029	0.30687524	0.10968684	0.11495242	0.28574371	0.097341644	0.20800381	0.38660022	0.34666843	0.23643608	0.20273996	0.058160606	0.15306801
